<mxfile host="app.diagrams.net" modified="2021-08-25T10:19:05.915Z" agent="5.0 (X11; Linux x86_64) AppleWebKit/537.36 (KHTML, like Gecko) Chrome/92.0.4515.159 Safari/537.36" etag="ivUFo5OOaRv-n0Y_S-9l" version="14.9.9" type="github">
  <diagram id="C5RBs43oDa-KdzZeNtuy" name="Page-1">
    <mxGraphModel dx="868" dy="1598" grid="1" gridSize="10" guides="1" tooltips="1" connect="1" arrows="1" fold="1" page="1" pageScale="1" pageWidth="827" pageHeight="1169" math="0" shadow="0">
      <root>
        <mxCell id="WIyWlLk6GJQsqaUBKTNV-0" />
        <mxCell id="WIyWlLk6GJQsqaUBKTNV-1" parent="WIyWlLk6GJQsqaUBKTNV-0" />
        <mxCell id="zkfFHV4jXpPFQw0GAbJ--0" value="UserAccount" style="swimlane;fontStyle=2;align=center;verticalAlign=top;childLayout=stackLayout;horizontal=1;startSize=26;horizontalStack=0;resizeParent=1;resizeLast=0;collapsible=1;marginBottom=0;rounded=0;shadow=0;strokeWidth=1;fillColor=#21C0A5;strokeColor=#006658;fontColor=#5C5C5C;" parent="WIyWlLk6GJQsqaUBKTNV-1" vertex="1">
          <mxGeometry x="50" y="80" width="220" height="326" as="geometry">
            <mxRectangle x="230" y="140" width="160" height="26" as="alternateBounds" />
          </mxGeometry>
        </mxCell>
        <mxCell id="yMmMfw-yELfP6yZ7qOpB-13" value="id&lt;br style=&quot;font-size: 22px;&quot;&gt;    name&lt;br style=&quot;font-size: 22px;&quot;&gt;    email&lt;br style=&quot;font-size: 22px;&quot;&gt;    password&lt;br style=&quot;font-size: 22px;&quot;&gt;    active&lt;br style=&quot;font-size: 22px;&quot;&gt;    remember&lt;br style=&quot;font-size: 22px;&quot;&gt;    registered_on&lt;br style=&quot;font-size: 22px;&quot;&gt;    admin&lt;br style=&quot;font-size: 22px;&quot;&gt;    confirmed&lt;br style=&quot;font-size: 22px;&quot;&gt;    confirmed_on" style="text;whiteSpace=wrap;html=1;fontSize=22;fontFamily=Courier New;fontColor=#5C5C5C;" vertex="1" parent="zkfFHV4jXpPFQw0GAbJ--0">
          <mxGeometry y="26" width="220" height="300" as="geometry" />
        </mxCell>
        <mxCell id="yMmMfw-yELfP6yZ7qOpB-36" style="edgeStyle=orthogonalEdgeStyle;curved=0;rounded=1;sketch=0;orthogonalLoop=1;jettySize=auto;html=1;entryX=0.87;entryY=-0.009;entryDx=0;entryDy=0;entryPerimeter=0;fontSize=26;fontColor=#5C5C5C;strokeColor=#006658;fillColor=#21C0A5;" edge="1" parent="WIyWlLk6GJQsqaUBKTNV-1" source="yMmMfw-yELfP6yZ7qOpB-17" target="yMmMfw-yELfP6yZ7qOpB-28">
          <mxGeometry relative="1" as="geometry" />
        </mxCell>
        <mxCell id="yMmMfw-yELfP6yZ7qOpB-40" style="edgeStyle=orthogonalEdgeStyle;curved=0;rounded=1;sketch=0;orthogonalLoop=1;jettySize=auto;html=1;fontSize=26;fontColor=#5C5C5C;strokeColor=#006658;fillColor=#21C0A5;" edge="1" parent="WIyWlLk6GJQsqaUBKTNV-1" source="yMmMfw-yELfP6yZ7qOpB-17">
          <mxGeometry relative="1" as="geometry">
            <mxPoint x="300" y="180" as="targetPoint" />
          </mxGeometry>
        </mxCell>
        <mxCell id="yMmMfw-yELfP6yZ7qOpB-17" value="UserOpponent" style="swimlane;fontStyle=2;align=center;verticalAlign=top;childLayout=stackLayout;horizontal=1;startSize=26;horizontalStack=0;resizeParent=1;resizeLast=0;collapsible=1;marginBottom=0;rounded=0;shadow=0;strokeWidth=1;fillColor=#21C0A5;strokeColor=#006658;fontColor=#5C5C5C;" vertex="1" parent="WIyWlLk6GJQsqaUBKTNV-1">
          <mxGeometry x="425" y="110" width="210" height="263" as="geometry">
            <mxRectangle x="230" y="140" width="160" height="26" as="alternateBounds" />
          </mxGeometry>
        </mxCell>
        <mxCell id="yMmMfw-yELfP6yZ7qOpB-20" value="&lt;div style=&quot;text-align: left ; font-size: 22px&quot;&gt;&lt;font style=&quot;font-size: 22px&quot;&gt;&amp;nbsp; &amp;nbsp; id&lt;/font&gt;&lt;/div&gt;&lt;div style=&quot;text-align: left ; font-size: 22px&quot;&gt;&lt;font style=&quot;font-size: 22px&quot;&gt;&amp;nbsp; &amp;nbsp; opponent_category&lt;/font&gt;&lt;/div&gt;&lt;div style=&quot;text-align: left ; font-size: 22px&quot;&gt;&lt;font style=&quot;font-size: 22px&quot;&gt;&amp;nbsp; &amp;nbsp; opponent_city&lt;/font&gt;&lt;/div&gt;&lt;div style=&quot;text-align: left ; font-size: 22px&quot;&gt;&lt;font style=&quot;font-size: 22px&quot;&gt;&amp;nbsp; &amp;nbsp; opponent_district&lt;/font&gt;&lt;/div&gt;&lt;div style=&quot;text-align: left ; font-size: 22px&quot;&gt;&lt;font style=&quot;font-size: 22px&quot;&gt;&amp;nbsp; &amp;nbsp; opponent_date&lt;/font&gt;&lt;/div&gt;&lt;div style=&quot;text-align: left ; font-size: 22px&quot;&gt;&lt;font style=&quot;font-size: 22px&quot;&gt;&amp;nbsp; &amp;nbsp; opponent_phone&lt;/font&gt;&lt;/div&gt;&lt;div style=&quot;text-align: left ; font-size: 22px&quot;&gt;&lt;font style=&quot;font-size: 22px&quot;&gt;&amp;nbsp; &amp;nbsp; user_account_id&lt;/font&gt;&lt;/div&gt;&lt;div style=&quot;text-align: left ; font-size: 22px&quot;&gt;&lt;font style=&quot;font-size: 22px&quot;&gt;&amp;nbsp;&amp;nbsp;&lt;/font&gt;&lt;/div&gt;&lt;div style=&quot;text-align: left ; font-size: 22px&quot;&gt;&lt;font style=&quot;font-size: 22px&quot;&gt;&amp;nbsp; &amp;nbsp;&lt;/font&gt;&lt;/div&gt;&lt;div style=&quot;text-align: left&quot;&gt;&lt;br&gt;&lt;/div&gt;" style="text;html=1;align=center;verticalAlign=middle;resizable=0;points=[];autosize=1;strokeColor=none;fontColor=#5C5C5C;" vertex="1" parent="WIyWlLk6GJQsqaUBKTNV-1">
          <mxGeometry x="415" y="205" width="230" height="150" as="geometry" />
        </mxCell>
        <mxCell id="yMmMfw-yELfP6yZ7qOpB-28" value="UserOpponent" style="swimlane;fontStyle=2;align=center;verticalAlign=top;childLayout=stackLayout;horizontal=1;startSize=26;horizontalStack=0;resizeParent=1;resizeLast=0;collapsible=1;marginBottom=0;rounded=0;shadow=0;strokeWidth=1;fillColor=#21C0A5;strokeColor=#006658;fontColor=#5C5C5C;" vertex="1" parent="WIyWlLk6GJQsqaUBKTNV-1">
          <mxGeometry x="144" y="480" width="270" height="350" as="geometry">
            <mxRectangle x="230" y="140" width="160" height="26" as="alternateBounds" />
          </mxGeometry>
        </mxCell>
        <mxCell id="yMmMfw-yELfP6yZ7qOpB-30" value="id&lt;br&gt;offer_name&lt;br style=&quot;font-size: 26px&quot;&gt;    offer_email&lt;br style=&quot;font-size: 26px&quot;&gt;    offer_phone&lt;br style=&quot;font-size: 26px&quot;&gt;    offer_category&lt;br style=&quot;font-size: 26px&quot;&gt;    offer_city&lt;br style=&quot;font-size: 26px&quot;&gt;    offer_district&lt;br style=&quot;font-size: 26px&quot;&gt;    offer_date&lt;br style=&quot;font-size: 26px&quot;&gt;    offer_accept&amp;nbsp;&lt;br style=&quot;font-size: 26px&quot;&gt;    offer_message" style="text;whiteSpace=wrap;html=1;fontSize=26;fontColor=#5C5C5C;" vertex="1" parent="yMmMfw-yELfP6yZ7qOpB-28">
          <mxGeometry y="26" width="270" height="154" as="geometry" />
        </mxCell>
        <mxCell id="yMmMfw-yELfP6yZ7qOpB-31" style="edgeStyle=orthogonalEdgeStyle;curved=0;rounded=1;sketch=0;orthogonalLoop=1;jettySize=auto;html=1;fontSize=26;fontColor=#5C5C5C;strokeColor=#006658;fillColor=#21C0A5;" edge="1" parent="WIyWlLk6GJQsqaUBKTNV-1" source="yMmMfw-yELfP6yZ7qOpB-30">
          <mxGeometry relative="1" as="geometry">
            <mxPoint x="100" y="430" as="targetPoint" />
          </mxGeometry>
        </mxCell>
        <mxCell id="yMmMfw-yELfP6yZ7qOpB-32" style="edgeStyle=orthogonalEdgeStyle;curved=0;rounded=1;sketch=0;orthogonalLoop=1;jettySize=auto;html=1;fontSize=26;fontColor=#5C5C5C;strokeColor=#006658;fillColor=#21C0A5;" edge="1" parent="WIyWlLk6GJQsqaUBKTNV-1" source="yMmMfw-yELfP6yZ7qOpB-13">
          <mxGeometry relative="1" as="geometry">
            <mxPoint x="230" y="464" as="targetPoint" />
          </mxGeometry>
        </mxCell>
        <mxCell id="yMmMfw-yELfP6yZ7qOpB-33" style="edgeStyle=orthogonalEdgeStyle;curved=0;rounded=1;sketch=0;orthogonalLoop=1;jettySize=auto;html=1;fontSize=26;fontColor=#5C5C5C;strokeColor=#006658;fillColor=#21C0A5;" edge="1" parent="WIyWlLk6GJQsqaUBKTNV-1" source="yMmMfw-yELfP6yZ7qOpB-30">
          <mxGeometry relative="1" as="geometry">
            <mxPoint x="550" y="420" as="targetPoint" />
          </mxGeometry>
        </mxCell>
        <mxCell id="yMmMfw-yELfP6yZ7qOpB-39" style="edgeStyle=orthogonalEdgeStyle;curved=0;rounded=1;sketch=0;orthogonalLoop=1;jettySize=auto;html=1;fontSize=26;fontColor=#5C5C5C;strokeColor=#006658;fillColor=#21C0A5;" edge="1" parent="WIyWlLk6GJQsqaUBKTNV-1" source="yMmMfw-yELfP6yZ7qOpB-13">
          <mxGeometry relative="1" as="geometry">
            <mxPoint x="360" y="256" as="targetPoint" />
          </mxGeometry>
        </mxCell>
        <mxCell id="yMmMfw-yELfP6yZ7qOpB-41" value="Role" style="swimlane;fontStyle=2;align=center;verticalAlign=top;childLayout=stackLayout;horizontal=1;startSize=26;horizontalStack=0;resizeParent=1;resizeLast=0;collapsible=1;marginBottom=0;rounded=0;shadow=0;strokeWidth=1;fillColor=#21C0A5;strokeColor=#006658;fontColor=#5C5C5C;" vertex="1" parent="WIyWlLk6GJQsqaUBKTNV-1">
          <mxGeometry x="660" y="-6" width="210" height="166" as="geometry">
            <mxRectangle x="230" y="140" width="160" height="26" as="alternateBounds" />
          </mxGeometry>
        </mxCell>
        <mxCell id="yMmMfw-yELfP6yZ7qOpB-42" value="&lt;pre style=&quot;background-color: rgb(255 , 255 , 255) ; color: rgb(8 , 8 , 8) ; font-family: &amp;#34;jetbrains mono&amp;#34; , monospace ; font-size: 21px&quot;&gt;id&lt;br&gt;name&lt;br&gt;description&lt;/pre&gt;" style="text;html=1;align=left;verticalAlign=middle;resizable=0;points=[];autosize=1;strokeColor=none;fontSize=26;fontColor=#5C5C5C;" vertex="1" parent="yMmMfw-yELfP6yZ7qOpB-41">
          <mxGeometry y="26" width="210" height="140" as="geometry" />
        </mxCell>
        <mxCell id="yMmMfw-yELfP6yZ7qOpB-43" style="edgeStyle=orthogonalEdgeStyle;curved=0;rounded=1;sketch=0;orthogonalLoop=1;jettySize=auto;html=1;fontSize=26;fontColor=#5C5C5C;strokeColor=#006658;fillColor=#21C0A5;" edge="1" parent="WIyWlLk6GJQsqaUBKTNV-1" source="yMmMfw-yELfP6yZ7qOpB-42">
          <mxGeometry relative="1" as="geometry">
            <mxPoint x="290" y="90" as="targetPoint" />
          </mxGeometry>
        </mxCell>
        <mxCell id="yMmMfw-yELfP6yZ7qOpB-44" value="User" style="swimlane;fontStyle=2;align=center;verticalAlign=top;childLayout=stackLayout;horizontal=1;startSize=26;horizontalStack=0;resizeParent=1;resizeLast=0;collapsible=1;marginBottom=0;rounded=0;shadow=0;strokeWidth=1;fillColor=#21C0A5;strokeColor=#006658;fontColor=#5C5C5C;" vertex="1" parent="WIyWlLk6GJQsqaUBKTNV-1">
          <mxGeometry x="660" y="480" width="300" height="380" as="geometry">
            <mxRectangle x="230" y="140" width="160" height="26" as="alternateBounds" />
          </mxGeometry>
        </mxCell>
        <mxCell id="yMmMfw-yELfP6yZ7qOpB-46" value="id&lt;br style=&quot;font-size: 29px;&quot;&gt;    full_name&lt;br style=&quot;font-size: 29px;&quot;&gt;    email&lt;br style=&quot;font-size: 29px;&quot;&gt;    phone&lt;br style=&quot;font-size: 29px;&quot;&gt;    address&lt;br style=&quot;font-size: 29px;&quot;&gt;    address2&lt;br style=&quot;font-size: 29px;&quot;&gt;    city&lt;br style=&quot;font-size: 29px;&quot;&gt;    state&lt;br style=&quot;font-size: 29px;&quot;&gt;    zip_code&lt;br style=&quot;font-size: 29px;&quot;&gt;    order_id" style="text;whiteSpace=wrap;html=1;fontSize=29;fontColor=#5C5C5C;" vertex="1" parent="yMmMfw-yELfP6yZ7qOpB-44">
          <mxGeometry y="26" width="300" height="330" as="geometry" />
        </mxCell>
        <mxCell id="yMmMfw-yELfP6yZ7qOpB-47" value="Order" style="swimlane;fontStyle=2;align=center;verticalAlign=top;childLayout=stackLayout;horizontal=1;startSize=26;horizontalStack=0;resizeParent=1;resizeLast=0;collapsible=1;marginBottom=0;rounded=0;shadow=0;strokeWidth=1;fillColor=#21C0A5;strokeColor=#006658;fontColor=#5C5C5C;" vertex="1" parent="WIyWlLk6GJQsqaUBKTNV-1">
          <mxGeometry x="1110" y="550" width="300" height="380" as="geometry">
            <mxRectangle x="230" y="140" width="160" height="26" as="alternateBounds" />
          </mxGeometry>
        </mxCell>
        <mxCell id="yMmMfw-yELfP6yZ7qOpB-48" value="&lt;pre style=&quot;background-color: rgb(255, 255, 255); font-family: &amp;quot;jetbrains mono&amp;quot;, monospace; font-size: 30px;&quot;&gt;id&lt;br style=&quot;font-size: 30px;&quot;&gt;name_product&lt;br style=&quot;font-size: 30px;&quot;&gt;print&lt;br style=&quot;font-size: 30px;&quot;&gt;color&lt;br style=&quot;font-size: 30px;&quot;&gt;size&lt;br style=&quot;font-size: 30px;&quot;&gt;sex&lt;br style=&quot;font-size: 30px;&quot;&gt;quantity&lt;br style=&quot;font-size: 30px;&quot;&gt;order_total&lt;br style=&quot;font-size: 30px;&quot;&gt;&lt;/pre&gt;" style="text;whiteSpace=wrap;html=1;fontSize=30;fontColor=#5C5C5C;" vertex="1" parent="yMmMfw-yELfP6yZ7qOpB-47">
          <mxGeometry y="26" width="300" height="330" as="geometry" />
        </mxCell>
        <mxCell id="yMmMfw-yELfP6yZ7qOpB-49" style="edgeStyle=orthogonalEdgeStyle;curved=0;rounded=1;sketch=0;orthogonalLoop=1;jettySize=auto;html=1;fontSize=30;fontColor=#5C5C5C;strokeColor=#006658;fillColor=#21C0A5;" edge="1" parent="WIyWlLk6GJQsqaUBKTNV-1" source="yMmMfw-yELfP6yZ7qOpB-46">
          <mxGeometry relative="1" as="geometry">
            <mxPoint x="1090" y="671" as="targetPoint" />
          </mxGeometry>
        </mxCell>
        <mxCell id="yMmMfw-yELfP6yZ7qOpB-50" style="edgeStyle=orthogonalEdgeStyle;curved=0;rounded=1;sketch=0;orthogonalLoop=1;jettySize=auto;html=1;fontSize=30;fontColor=#5C5C5C;strokeColor=#006658;fillColor=#21C0A5;" edge="1" parent="WIyWlLk6GJQsqaUBKTNV-1" source="yMmMfw-yELfP6yZ7qOpB-48">
          <mxGeometry relative="1" as="geometry">
            <mxPoint x="970" y="741" as="targetPoint" />
          </mxGeometry>
        </mxCell>
        <mxCell id="yMmMfw-yELfP6yZ7qOpB-51" value="Product&#xa;" style="swimlane;fontStyle=2;align=center;verticalAlign=top;childLayout=stackLayout;horizontal=1;startSize=26;horizontalStack=0;resizeParent=1;resizeLast=0;collapsible=1;marginBottom=0;rounded=0;shadow=0;strokeWidth=1;fillColor=#21C0A5;strokeColor=#006658;fontColor=#5C5C5C;" vertex="1" parent="WIyWlLk6GJQsqaUBKTNV-1">
          <mxGeometry x="625" y="1070" width="215" height="290" as="geometry">
            <mxRectangle x="230" y="140" width="160" height="26" as="alternateBounds" />
          </mxGeometry>
        </mxCell>
        <mxCell id="yMmMfw-yELfP6yZ7qOpB-57" style="edgeStyle=orthogonalEdgeStyle;curved=0;rounded=1;sketch=0;orthogonalLoop=1;jettySize=auto;html=1;fontSize=25;fontColor=#5C5C5C;strokeColor=#006658;fillColor=#21C0A5;" edge="1" parent="WIyWlLk6GJQsqaUBKTNV-1" source="yMmMfw-yELfP6yZ7qOpB-53">
          <mxGeometry relative="1" as="geometry">
            <mxPoint x="970" y="1230" as="targetPoint" />
          </mxGeometry>
        </mxCell>
        <mxCell id="yMmMfw-yELfP6yZ7qOpB-53" value="id&lt;br&gt;    name&lt;br&gt;    price&lt;br&gt;    is_new&lt;br&gt;    add&lt;br&gt;    deleted" style="text;whiteSpace=wrap;html=1;fontSize=30;fontColor=#5C5C5C;" vertex="1" parent="WIyWlLk6GJQsqaUBKTNV-1">
          <mxGeometry x="640" y="1110" width="200" height="240" as="geometry" />
        </mxCell>
        <mxCell id="yMmMfw-yELfP6yZ7qOpB-54" value="TShirt" style="swimlane;fontStyle=2;align=center;verticalAlign=top;childLayout=stackLayout;horizontal=1;startSize=26;horizontalStack=0;resizeParent=1;resizeLast=0;collapsible=1;marginBottom=0;rounded=0;shadow=0;strokeWidth=1;fillColor=#21C0A5;strokeColor=#006658;fontColor=#5C5C5C;" vertex="1" parent="WIyWlLk6GJQsqaUBKTNV-1">
          <mxGeometry x="980" y="1030" width="190" height="296" as="geometry">
            <mxRectangle x="230" y="140" width="160" height="26" as="alternateBounds" />
          </mxGeometry>
        </mxCell>
        <mxCell id="yMmMfw-yELfP6yZ7qOpB-55" value="&lt;pre style=&quot;background-color: rgb(255, 255, 255); font-family: &amp;quot;jetbrains mono&amp;quot;, monospace; font-size: 25px;&quot;&gt;id&lt;br style=&quot;font-size: 25px;&quot;&gt;name&lt;br style=&quot;font-size: 25px;&quot;&gt;color&lt;br style=&quot;font-size: 25px;&quot;&gt;size&lt;br style=&quot;font-size: 25px;&quot;&gt;sex&lt;br style=&quot;font-size: 25px;&quot;&gt;quantity&lt;br style=&quot;font-size: 25px;&quot;&gt;product_id&lt;/pre&gt;" style="text;html=1;align=left;verticalAlign=middle;resizable=0;points=[];autosize=1;strokeColor=none;fontSize=25;fontColor=#5C5C5C;" vertex="1" parent="yMmMfw-yELfP6yZ7qOpB-54">
          <mxGeometry y="26" width="190" height="270" as="geometry" />
        </mxCell>
        <mxCell id="yMmMfw-yELfP6yZ7qOpB-58" style="edgeStyle=orthogonalEdgeStyle;curved=0;rounded=1;sketch=0;orthogonalLoop=1;jettySize=auto;html=1;fontSize=25;fontColor=#5C5C5C;strokeColor=#006658;fillColor=#21C0A5;" edge="1" parent="WIyWlLk6GJQsqaUBKTNV-1" source="yMmMfw-yELfP6yZ7qOpB-55">
          <mxGeometry relative="1" as="geometry">
            <mxPoint x="850" y="1191" as="targetPoint" />
          </mxGeometry>
        </mxCell>
      </root>
    </mxGraphModel>
  </diagram>
</mxfile>
